<svg height="200px" width="200px" version="1.1" id="Layer_1" xmlns="http://www.w3.org/2000/svg" xmlns:xlink="http://www.w3.org/1999/xlink" viewBox="0 0 503.466 503.466" xml:space="preserve" fill="#000000"><g id="SVGRepo_bgCarrier" stroke-width="0"></g><g id="SVGRepo_tracerCarrier" stroke-linecap="round" stroke-linejoin="round"></g><g id="SVGRepo_iconCarrier"> <g transform="translate(1 1)"> <g> <path style="fill:#E4F2DE;" d="M166.253,132.547c-12.8,9.387-24.747,20.48-34.133,34.133l-0.853-0.853l-66.56-66.56 c-5.973,8.533-16.213,14.507-28.16,14.507c-18.773,0-34.133-15.36-34.133-34.133s15.36-34.133,34.133-34.133 c3.413,0,6.827,0.853,10.24,1.707c-0.853-3.413-1.707-6.827-1.707-10.24C45.08,18.2,60.44,2.84,79.214,2.84 s34.133,15.36,34.133,34.133c0,11.947-5.973,22.187-14.507,28.16l65.707,65.707L166.253,132.547z M369.347,165.827 c-9.387-12.8-20.48-24.747-34.133-34.133l0.853-0.853l66.56-66.56c-8.533-5.973-14.507-16.213-14.507-28.16 c0-18.773,15.36-34.133,34.133-34.133c18.773,0,34.133,15.36,34.133,34.133c0,3.413-0.853,6.827-1.707,10.24 c3.413-0.853,6.827-1.707,10.24-1.707c18.773,0,34.133,15.36,34.133,34.133s-15.36,34.133-34.133,34.133 c-11.947,0-22.187-5.973-28.16-14.507L369.347,165.827z M336.067,344.173H370.2l0.853-5.973h1.707l63.147,63.147 c5.973-8.533,16.213-14.507,28.16-14.507c18.773,0,34.133,15.36,34.133,34.133s-15.36,34.133-34.133,34.133 c-3.413,0-6.827-0.853-10.24-1.707c0.853,3.413,1.707,6.827,1.707,10.24c0,18.773-15.36,34.133-34.133,34.133 s-34.133-15.36-34.133-34.133c0-11.947,5.973-22.187,14.507-28.16l-79.36-79.36h-1.707 C322.413,351,326.68,344.173,336.067,344.173z M165.4,344.173c9.387,0,13.653,6.827,15.36,11.947l-2.56,0.853L99.693,435.48 c8.533,5.973,14.507,16.213,14.507,28.16c0,18.773-15.36,34.133-34.133,34.133s-34.133-15.36-34.133-34.133 c0-3.413,0.853-6.827,1.707-10.24c-3.413,0.853-6.827,1.707-10.24,1.707c-18.773,0-34.133-15.36-34.133-34.133 S18.627,386.84,37.4,386.84c11.947,0,22.187,5.973,28.16,14.507l63.147-63.147h1.707l0.853,5.973L165.4,344.173L165.4,344.173z"></path> <path style="fill:#E4F2DE;" d="M276.333,412.44h-51.2H191l-8.533-51.2c0,0,0-2.56-1.707-5.12 c-1.707-5.12-5.973-11.947-15.36-11.947h-34.133l-0.853-5.973l-7.68-45.227c-8.533-8.533-17.067-21.333-17.067-42.667 c0-31.573,10.24-60.587,27.307-84.48c9.387-12.8,20.48-24.747,34.133-34.133c23.893-17.067,52.907-27.307,84.48-27.307 s60.587,10.24,84.48,27.307c12.8,9.387,24.747,20.48,34.133,34.133c17.067,23.893,26.453,52.907,26.453,84.48 c0,21.333-8.533,34.133-17.067,42.667l-7.68,45.227l-0.853,5.973H336.92c-9.387,0-13.653,6.827-15.36,11.947 c-0.853,3.413-1.707,5.12-1.707,5.12l-8.533,51.2H276.333z"></path> </g> <path style="fill:#AAB1BA;" d="M199.533,224.707c14.507,0,25.6,11.093,25.6,25.6c0,14.507-11.093,25.6-25.6,25.6 s-25.6-11.093-25.6-25.6C173.933,235.8,185.027,224.707,199.533,224.707z M267.8,327.107h-34.133c0,0,0-25.6,17.067-25.6 S267.8,327.107,267.8,327.107z M301.933,224.707c14.507,0,25.6,11.093,25.6,25.6c0,14.507-11.093,25.6-25.6,25.6 s-25.6-11.093-25.6-25.6C276.333,235.8,287.427,224.707,301.933,224.707z"></path> </g> <path style="fill:#51565F;" d="M422.4,503.04c-21.333,0-38.4-17.067-38.4-38.4c0-11.093,4.267-21.333,12.8-28.16l-53.76-53.76 c-1.707-1.707-1.707-4.267,0-5.973c1.707-1.707,4.267-1.707,5.973,0l57.173,57.173c0.853,0.853,1.707,2.56,0.853,3.413 c-0.853,0.853-0.853,2.56-1.707,3.413c-7.68,5.973-12.8,14.507-12.8,24.747c0,16.213,13.653,29.867,29.867,29.867 s29.867-13.653,29.867-29.867c0-2.56-0.853-5.973-1.707-9.387c-0.853-1.707,0-3.413,0.853-4.267c0.853-0.853,2.56-1.707,4.267-0.853 c3.413,0.853,5.973,1.707,9.387,1.707c16.213,0,29.867-13.653,29.867-29.867c0-16.213-13.653-29.867-29.867-29.867 c-9.387,0-18.773,5.12-24.747,12.8c-0.853,0.853-1.707,1.707-3.413,1.707c-0.853,0-2.56,0-3.413-0.853l-40.107-40.107 c-1.707-1.707-1.707-4.267,0-5.973c1.707-1.707,4.267-1.707,5.973,0l36.693,36.693c6.827-7.68,17.92-12.8,28.16-12.8 c21.333,0,38.4,17.067,38.4,38.4s-17.067,38.4-38.4,38.4c-1.707,0-3.413,0-4.267,0c0,1.707,0,3.413,0,4.267 C460.8,485.973,443.733,503.04,422.4,503.04z M81.067,503.04c-21.333,0-38.4-17.067-38.4-38.4c0-1.707,0-3.413,0-4.267 c-1.707,0-3.413,0-4.267,0c-21.333,0-38.4-17.067-38.4-38.4c0-21.333,17.067-38.4,38.4-38.4c11.093,0,21.333,4.267,28.16,12.8 l36.693-36.693c1.707-1.707,4.267-1.707,5.973,0c1.707,1.707,1.707,4.267,0,5.973L69.12,405.76 c-0.853,0.853-1.707,1.707-3.413,0.853c-0.853,0-2.56-0.853-3.413-1.707c-5.973-7.68-14.507-12.8-24.747-12.8 c-16.213,0-29.867,13.653-29.867,29.867s13.653,29.867,29.867,29.867c2.56,0,5.973-0.853,9.387-1.707 c1.707-0.853,3.413,0,4.267,0.853c0.853,0.853,1.707,2.56,0.853,4.267c-0.853,3.413-1.707,5.973-1.707,9.387 c0,16.213,13.653,29.867,29.867,29.867s29.867-13.653,29.867-29.867c0-9.387-5.12-18.773-12.8-24.747 c-0.853-0.853-1.707-1.707-1.707-3.413s0-2.56,0.853-3.413l57.173-57.173c1.707-1.707,4.267-1.707,5.973,0 c1.707,1.707,1.707,4.267,0,5.973l-53.76,53.76c7.68,6.827,12.8,17.92,12.8,28.16C119.467,485.973,102.4,503.04,81.067,503.04z M311.467,417.707C311.467,417.707,310.613,417.707,311.467,417.707c-3.413-0.853-4.267-2.56-4.267-5.12l8.533-51.2 c0.853-6.827,6.827-20.48,21.333-20.48h30.72l7.68-47.787c0-0.853,0.853-1.707,0.853-2.56c11.093-11.093,16.213-23.04,16.213-39.253 c0-77.653-63.147-140.8-140.8-140.8s-140.8,63.147-140.8,140.8c0,16.213,5.12,29.013,16.213,39.253 c0.853,0.853,0.853,1.707,0.853,2.56l7.68,47.787h30.72c15.36,0,20.48,13.653,21.333,20.48l7.68,47.787h26.453v-29.867 c0-2.56,1.707-4.267,4.267-4.267s4.267,1.707,4.267,4.267v29.867h42.667v-29.867c0-2.56,1.707-4.267,4.267-4.267 s4.267,1.707,4.267,4.267v34.133c0,2.56-1.707,4.267-4.267,4.267H192c-1.707,0-4.267-1.707-4.267-3.413l-8.533-51.2 c0-1.707-1.707-13.653-12.8-13.653h-34.133c-1.707,0-4.267-1.707-4.267-3.413l-8.533-49.493 c-11.093-11.947-17.067-27.307-17.067-44.373c0-81.92,67.413-149.333,149.333-149.333S401.067,170.24,401.067,252.16 c0,17.92-5.973,32.427-17.067,44.373l-8.533,49.493c0,1.707-1.707,3.413-4.267,3.413h-34.133c-10.24,0-12.8,12.8-12.8,13.653 l-8.533,51.2C315.733,416,313.173,417.707,311.467,417.707z M268.8,332.373h-34.133c-2.56,0-4.267-1.707-4.267-4.267 c0-10.24,4.267-29.867,21.333-29.867s21.333,19.627,21.333,29.867C273.067,330.666,271.36,332.373,268.8,332.373z M238.933,323.84 h24.747c-0.853-5.973-3.413-17.067-12.8-17.067C241.493,306.773,239.787,317.866,238.933,323.84z M302.933,281.173 c-16.213,0-29.867-13.653-29.867-29.867s13.653-29.867,29.867-29.867s29.867,13.653,29.867,29.867S319.147,281.173,302.933,281.173z M302.933,229.973c-11.947,0-21.333,9.387-21.333,21.333c0,11.947,9.387,21.333,21.333,21.333s21.333-9.387,21.333-21.333 C324.267,239.36,314.88,229.973,302.933,229.973z M200.533,281.173c-16.213,0-29.867-13.653-29.867-29.867 s13.653-29.867,29.867-29.867s29.867,13.653,29.867,29.867S216.747,281.173,200.533,281.173z M200.533,229.973 c-11.947,0-21.333,9.387-21.333,21.333c0,11.947,9.387,21.333,21.333,21.333c11.947,0,21.333-9.387,21.333-21.333 C221.867,239.36,212.48,229.973,200.533,229.973z M110.933,148.907c-0.853,0-2.56,0-3.413-0.853l-40.96-40.96 c-6.827,7.68-17.92,12.8-28.16,12.8c-21.333,0-38.4-17.067-38.4-38.4s17.067-38.4,38.4-38.4c1.707,0,3.413,0,4.267,0 c0-1.707,0-3.413,0-4.267c0-21.333,17.067-38.4,38.4-38.4s38.4,17.067,38.4,38.4c0,11.093-4.267,21.333-12.8,28.16l40.96,40.96 c1.707,1.707,1.707,4.267,0,5.973s-4.267,1.707-5.973,0L97.28,69.546c-0.853-0.853-1.707-2.56-0.853-3.413s0.853-2.56,1.707-3.413 c7.68-5.973,12.8-14.507,12.8-24.747c0-16.213-13.653-29.867-29.867-29.867S51.2,21.76,51.2,37.973c0,2.56,0.853,5.973,1.707,9.387 c0.853,1.707,0,3.413-0.853,4.267c-0.853,0.853-2.56,1.707-4.267,0.853c-3.413-0.853-5.973-1.707-9.387-1.707 c-16.213,0-29.867,13.653-29.867,29.867s13.653,29.867,29.867,29.867c9.387,0,18.773-5.12,24.747-12.8C64,96.853,64.853,96,66.56,96 c0.853,0,2.56,0,3.413,0.853l44.373,44.373c1.707,1.707,1.707,4.267,0,5.973C113.493,148.907,111.787,148.907,110.933,148.907z M392.533,148.907c-0.853,0-2.56,0-3.413-0.853c-1.707-1.707-1.707-4.267,0-5.973l44.373-44.373c0.853-0.853,2.56-1.707,3.413-0.853 c0.853,0,2.56,0.853,3.413,1.707c5.973,7.68,14.507,12.8,24.747,12.8c16.213,0,29.867-13.653,29.867-29.867 s-13.653-29.867-29.867-29.867c-2.56,0-5.973,0.853-9.387,1.707c-1.707,0.853-3.413,0-4.267-0.853s-1.707-2.56-0.853-4.267 c0.853-3.413,1.707-5.973,1.707-9.387c0-16.213-13.653-29.867-29.867-29.867c-16.213,0-29.867,13.653-29.867,29.867 c0,9.387,5.12,18.773,12.8,24.747c0.853,0.853,1.707,1.707,1.707,3.413c0,1.707,0,2.56-0.853,3.413l-44.373,44.373 c-1.707,1.707-4.267,1.707-5.973,0c-1.707-1.707-1.707-4.267,0-5.973l40.96-40.96c-7.68-6.827-12.8-17.92-12.8-28.16 c0-21.333,17.067-38.4,38.4-38.4c21.333,0,38.4,17.067,38.4,38.4c0,1.707,0,3.413,0,4.267c1.707,0,3.413,0,4.267,0 c21.333,0,38.4,17.067,38.4,38.4s-17.067,38.4-38.4,38.4c-11.093,0-21.333-4.267-28.16-12.8l-40.96,40.96 C395.093,148.907,393.387,148.907,392.533,148.907z"></path> </g></svg>